<svg
	xmlns="http://www.w3.org/2000/svg"
	xmlns:xlink="http://www.w3.org/1999/xlink" viewBox="197.93 198.61 625.68 614.7">
	<path fill="white" transform="scale(2 1.97656)" d="M197.999 311.237L150.635 311.243C130.808 311.259 104.477 314.346 99.7028 287.468C98.4952 280.669 99.1284 268.886 99.1307 261.548L99.13 137.022C99.1357 117.358 103.541 104.292 125.219 100.703C134.701 100.461 144.246 100.711 153.733 100.712L247.773 100.694C261.76 100.689 274.65 98.2367 284.884 110.154C289.801 115.88 291.479 123.106 290.946 130.516L281.908 130.516C280.854 116.12 274.458 110.416 259.943 110.308L141.726 110.291C112.969 110.298 108.733 113.58 108.735 140.504L108.743 224.625L108.72 277.29C108.676 296.122 117.027 301.588 134.798 301.598L197.999 301.595L197.999 311.237Z"/>
	<path fill="white" transform="scale(2 1.97656)" d="M334.946 142.524C339.426 138.672 343.863 131.674 349.903 130.516C352.6 130.032 355.559 131.586 355.503 134.687C355.425 138.954 343.874 147.761 340.684 151.007C357.159 188.719 312.093 217.389 285.016 189.611C278.755 182.429 275.936 174.81 276.002 165.241C276.216 134.515 313.569 120.217 334.946 142.524ZM308.271 141.598C294.559 142.888 284.374 154.851 285.802 168.696C289.324 202.844 344.082 194.355 332.849 158.201L329.79 160.964C325.545 165.002 315.879 174.934 311.103 177.015C306.674 174.453 297.578 165.784 293.783 161.862C296.067 159.662 298.345 157.46 300.777 155.421C304.251 158.559 307.73 161.695 311.103 164.943C316.887 160.192 322.301 154.596 327.579 149.278C322.531 143.741 315.71 141.007 308.271 141.598Z"/>
	<path fill="white" transform="scale(2 1.97656)" d="M247.69 170.699L159.021 170.702C155.85 170.702 144.416 171.527 141.872 169.86C137.903 167.258 139.261 161.806 145.553 160.964L234.806 160.952C238.403 160.943 247.704 159.87 250.727 161.94C255.047 164.898 251.79 169.957 247.69 170.699Z"/>
	<path fill="white" transform="scale(2 1.97656)" d="M143.029 209.566C140.555 207.885 138.248 204.131 140.955 201.552C143.952 198.696 152.7 199.952 156.485 199.951L241.44 199.955C257.696 199.352 253.25 208.872 247.984 209.523C245.065 209.884 241.75 209.562 238.793 209.562L150.402 209.566C147.942 209.617 145.488 209.684 143.029 209.566Z"/>
	<path fill="white" transform="scale(2 1.97656)" d="M314.403 411.363C258.002 413.988 210.169 370.355 207.613 313.95C205.058 257.545 248.75 209.767 305.158 207.281C361.467 204.8 409.144 248.398 411.695 304.705C414.246 361.011 370.706 408.742 314.403 411.363ZM305.489 217.115C254.545 219.412 215.14 262.623 217.536 313.562C219.932 364.501 263.22 403.822 314.154 401.327C364.948 398.839 404.138 355.696 401.749 304.897C399.359 254.098 356.292 214.824 305.489 217.115Z"/>
	<path fill="white" transform="scale(2 1.97656)" d="M304.673 242.532C304.687 237.034 303.848 230.875 304.673 225.5L314.945 225.5L314.945 242.532L304.673 242.532Z"/>
	<path fill="white" transform="scale(2 1.97656)" d="M143.029 249.362C138.366 245.758 138.877 240.155 145.553 239.56L182.135 239.552C188.554 239.553 195.319 239.13 201.702 239.775C208.591 240.47 207.527 248.891 200.561 249.362L161.59 249.359C155.448 249.359 149.151 249.722 143.029 249.362Z"/>
	<path fill="white" transform="scale(2 1.97656)" d="M317.942 294.963C322.926 290.105 348.561 262.873 353.285 261.023C357.811 260.914 361.271 264.431 358.027 268.749C354.99 272.79 350.524 276.418 346.919 279.991L325.292 301.595C332.797 318.325 315.912 333.745 300.777 324.695C282.598 313.178 296.608 285.051 317.942 294.963ZM307.91 302.977C304.027 303.969 301.667 307.902 302.62 311.795C303.572 315.688 307.482 318.087 311.384 317.174C313.943 316.575 315.984 314.648 316.728 312.127C317.472 309.606 316.805 306.879 314.981 304.986C313.157 303.094 310.457 302.326 307.91 302.977Z"/>
	<path fill="white" transform="scale(2 1.97656)" d="M225.494 314.752L225.494 305.169L245.755 305.169L245.755 314.752L225.494 314.752Z"/>
	<path fill="white" transform="scale(2 1.97656)" d="M375.014 305.169L386.251 305.169C389.072 305.605 391.438 305.484 394.269 305.169L394.269 315.824L383.463 315.824L375.014 315.824L375.014 305.169Z"/>
	<path fill="white" transform="scale(2 1.97656)" d="M304.673 392.641L304.673 371.621L314.945 371.621C314.905 378.391 315.461 385.973 314.945 392.641L304.673 392.641Z"/>
</svg>